<mxfile host="app.diagrams.net" modified="2023-10-18T10:59:36.671Z" agent="Mozilla/5.0 (Windows NT 10.0; Win64; x64) AppleWebKit/537.36 (KHTML, like Gecko) Chrome/118.0.0.0 Safari/537.36" version="22.0.4" etag="oE1JHztYLB3Hyh_aWGp5" type="github">
  <diagram name="第 1 页" id="UKZ7H-h9Aa6EHxbR1y34">
    <mxGraphModel>
      <root>
        <mxCell id="0" />
        <mxCell id="1" parent="0" />
      </root>
    </mxGraphModel>
  </diagram>
</mxfile>
